<svg width="40" height="40" viewBox="0 0 40 40" fill="none" xmlns="http://www.w3.org/2000/svg">
<path fill-rule="evenodd" clip-rule="evenodd" d="M5 11.6667C5 12.5833 5.75 13.3333 6.66667 13.3333H33.3333C34.25 13.3333 35 12.5833 35 11.6667C35 10.75 34.25 10 33.3333 10H6.66667C5.75 10 5 10.75 5 11.6667ZM18.3333 30H21.6667C22.5833 30 23.3333 29.25 23.3333 28.3333C23.3333 27.4167 22.5833 26.6667 21.6667 26.6667H18.3333C17.4167 26.6667 16.6667 27.4167 16.6667 28.3333C16.6667 29.25 17.4167 30 18.3333 30ZM28.3333 21.6667H11.6667C10.75 21.6667 10 20.9167 10 20C10 19.0833 10.75 18.3333 11.6667 18.3333H28.3333C29.25 18.3333 30 19.0833 30 20C30 20.9167 29.25 21.6667 28.3333 21.6667Z" fill="#C48E37"/>
</svg>
