<svg width="30" height="30" viewBox="0 0 30 30" fill="none" xmlns="http://www.w3.org/2000/svg">
<g id="reorder_24px">
<path id="icon/action/reorder_24px" fill-rule="evenodd" clip-rule="evenodd" d="M5 8.75C4.31244 8.75 3.75 8.18748 3.75 7.5C3.75 6.81252 4.31244 6.25 5 6.25H25C25.6876 6.25 26.25 6.81252 26.25 7.5C26.25 8.18748 25.6876 8.75 25 8.75H5ZM5 13.75H25C25.6876 13.75 26.25 13.1875 26.25 12.5C26.25 11.8125 25.6876 11.25 25 11.25H5C4.31244 11.25 3.75 11.8125 3.75 12.5C3.75 13.1875 4.31244 13.75 5 13.75ZM25 18.75H5C4.31244 18.75 3.75 18.1875 3.75 17.5C3.75 16.8125 4.31244 16.25 5 16.25H25C25.6876 16.25 26.25 16.8125 26.25 17.5C26.25 18.1875 25.6876 18.75 25 18.75ZM25 23.75H5C4.31244 23.75 3.75 23.1875 3.75 22.5C3.75 21.8125 4.31244 21.25 5 21.25H25C25.6876 21.25 26.25 21.8125 26.25 22.5C26.25 23.1875 25.6876 23.75 25 23.75Z" fill="white"/>
</g>
</svg>
