<svg xmlns="http://www.w3.org/2000/svg" xmlns:xlink="http://www.w3.org/1999/xlink" viewBox="0 0 552.05 439.99"><defs><style>.cls-1{fill:#fff;}.cls-2{clip-path:url(#clip-path);}.cls-3{clip-path:url(#clip-path-2);}.cls-4{clip-path:url(#clip-path-3);}</style><clipPath id="clip-path"><path class="cls-1" d="M176.07,339.22a4.41,4.41,0,0,1,1.36,3.52,7.05,7.05,0,0,1-2.45,5.63q-2.44,2.11-8,2.12h-6.69l3.41-24.25h6.69a10,10,0,0,1,5.53,1.35,4.54,4.54,0,0,1,2.07,4.07,5.38,5.38,0,0,1-1.54,4,7.48,7.48,0,0,1-3.88,2A7.3,7.3,0,0,1,176.07,339.22Zm-3.62,7.24a4.81,4.81,0,0,0,1.53-3.79q0-3.59-4.79-3.59h-4L164,347.81h3.13Q170.92,347.81,172.45,346.46Zm-5.86-17.58-1.06,7.63h3.56a6.3,6.3,0,0,0,3.92-1.19,4.22,4.22,0,0,0,1.57-3.56,2.36,2.36,0,0,0-1.11-2.25,6.1,6.1,0,0,0-3-.63Zm16.34,20a8.1,8.1,0,0,1-1.84-5.64,15.67,15.67,0,0,1,1-5.29,10.78,10.78,0,0,1,3.12-4.56,8.12,8.12,0,0,1,5.52-1.86,6.69,6.69,0,0,1,5.25,2,8.12,8.12,0,0,1,1.83,5.63,15.87,15.87,0,0,1-1,5.26,10.71,10.71,0,0,1-3.1,4.57,8,8,0,0,1-5.52,1.89A6.76,6.76,0,0,1,182.93,348.87Zm9-2.1a8.73,8.73,0,0,0,1.94-3.69,17.11,17.11,0,0,0,.56-4.24q0-4.72-3.8-4.72a4.58,4.58,0,0,0-3.59,1.53,8.72,8.72,0,0,0-1.95,3.7,16.15,16.15,0,0,0-.58,4.24c0,3.14,1.27,4.71,3.83,4.71A4.58,4.58,0,0,0,191.89,346.77Zm11.39,2.92a4.54,4.54,0,0,1-1.22-3.36,7.49,7.49,0,0,1,.11-1.23L204,331.94h3.21l-1.83,13a6.2,6.2,0,0,0-.11,1.16,2.45,2.45,0,0,0,.51,1.73,2,2,0,0,0,1.53.52,4.38,4.38,0,0,0,2.94-1.19A17,17,0,0,0,213,344l1.69-12.07h3.21l-2.61,18.55h-2.75l.25-3.42a11.36,11.36,0,0,1-2.83,2.87,5.78,5.78,0,0,1-3.29,1A4.54,4.54,0,0,1,203.28,349.69Zm22.68-4.1c-.05.47-.07.78-.07.92a1.75,1.75,0,0,0,.4,1.28,1.71,1.71,0,0,0,1.25.41,4.09,4.09,0,0,0,1.25-.2,9.76,9.76,0,0,0,1.43-.58l1.05,2.26a7.53,7.53,0,0,1-4.11,1.23,4.58,4.58,0,0,1-3.31-1.11,4.13,4.13,0,0,1-1.16-3.15,6.53,6.53,0,0,1,.07-1.13l1.55-11.08H221.1l.35-2.5h3.35l1.16-4.3,2.53-.28-.63,4.58h4.36l-.7,2.5h-4Zm14.22-13.65-2.61,18.55h-3.2L237,331.94Zm-2.36-5.09a2,2,0,0,1-.56-1.42,2.29,2.29,0,0,1,.7-1.71,2.37,2.37,0,0,1,1.73-.69,2,2,0,0,1,1.51.57,2,2,0,0,1,.56,1.44,2.29,2.29,0,0,1-.7,1.71,2.42,2.42,0,0,1-1.73.68A2,2,0,0,1,237.82,326.85Zm17.25,21.38a7.38,7.38,0,0,1-2.29,1.92,5.92,5.92,0,0,1-2.92.76,5.28,5.28,0,0,1-4.35-1.94,8,8,0,0,1-1.57-5.17,16.18,16.18,0,0,1,1-5.63,11.32,11.32,0,0,1,3.26-4.74,8.23,8.23,0,0,1,5.59-1.91,14.53,14.53,0,0,1,3.28.35,15.13,15.13,0,0,1,3.34,1.23l-3.55,24.57-3.21.42Zm-2-.77a12.91,12.91,0,0,0,2.38-2.54L257,334.68a9.31,9.31,0,0,0-1.46-.46,8.43,8.43,0,0,0-1.6-.14,4.91,4.91,0,0,0-3.68,1.5,9,9,0,0,0-2.15,3.73,15.26,15.26,0,0,0-.69,4.52,5.78,5.78,0,0,0,.81,3.4,2.71,2.71,0,0,0,2.33,1.11A4.09,4.09,0,0,0,253.11,347.46Zm13,2.23a4.54,4.54,0,0,1-1.21-3.36,7.49,7.49,0,0,1,.11-1.23l1.86-13.16h3.2l-1.83,13a7.09,7.09,0,0,0-.1,1.16,2.45,2.45,0,0,0,.51,1.73,2,2,0,0,0,1.53.52,4.39,4.39,0,0,0,2.94-1.19,17,17,0,0,0,2.69-3.17l1.69-12.07h3.2l-2.6,18.55h-2.75l.25-3.42a11.52,11.52,0,0,1-2.83,2.87,5.8,5.8,0,0,1-3.29,1A4.55,4.55,0,0,1,266.13,349.69Zm30.68-8.32a27.14,27.14,0,0,1-8.87,2.22q.1,4.61,4,4.61a7.26,7.26,0,0,0,2.5-.43,10.13,10.13,0,0,0,2.46-1.3l1.38,2.19a11.23,11.23,0,0,1-6.66,2.25,6.79,6.79,0,0,1-5.22-2,7.79,7.79,0,0,1-1.85-5.54,16.24,16.24,0,0,1,1-5.51,10.32,10.32,0,0,1,3.11-4.54,8.16,8.16,0,0,1,5.46-1.81,6.26,6.26,0,0,1,4.34,1.37,4.32,4.32,0,0,1,1.53,3.34A5.35,5.35,0,0,1,296.81,341.37Zm-2.27-1.76a3.42,3.42,0,0,0,2.06-3.27,2.33,2.33,0,0,0-.6-1.55,2.42,2.42,0,0,0-1.94-.71,4.74,4.74,0,0,0-4.12,2.05,11,11,0,0,0-1.83,5A20.37,20.37,0,0,0,294.54,339.61Zm33.5-.39a4.37,4.37,0,0,1,1.36,3.52,7.05,7.05,0,0,1-2.45,5.63q-2.44,2.11-8,2.12h-6.69l3.42-24.25h6.68a10,10,0,0,1,5.53,1.35,4.54,4.54,0,0,1,2.08,4.07,5.39,5.39,0,0,1-1.55,4,7.49,7.49,0,0,1-3.87,2A7.31,7.31,0,0,1,328,339.22Zm-3.62,7.24a4.81,4.81,0,0,0,1.53-3.79q0-3.59-4.79-3.59h-4l-1.23,8.73h3.13Q322.89,347.81,324.42,346.46Zm-5.86-17.58-1.06,7.63h3.56a6.3,6.3,0,0,0,3.92-1.19,4.22,4.22,0,0,0,1.57-3.56,2.36,2.36,0,0,0-1.11-2.25,6.1,6.1,0,0,0-3-.63Zm27.61,3a16.33,16.33,0,0,1,3.22,1.2l-1.9,13.16a6.83,6.83,0,0,0-.07.78,1.76,1.76,0,0,0,.26,1,1.86,1.86,0,0,0,.93.63l-.91,2.22a4,4,0,0,1-2.29-.92,3.35,3.35,0,0,1-1-2.18,9.16,9.16,0,0,1-2.54,2.27,5.82,5.82,0,0,1-3,.83,5.26,5.26,0,0,1-4.36-1.94A8,8,0,0,1,333,343.8a16.17,16.17,0,0,1,1-5.63,11.41,11.41,0,0,1,3.26-4.74,8.24,8.24,0,0,1,5.6-1.91A13.6,13.6,0,0,1,346.17,331.9Zm-6.9,3.68a9,9,0,0,0-2.15,3.73,15.25,15.25,0,0,0-.68,4.52,5.78,5.78,0,0,0,.81,3.4,2.69,2.69,0,0,0,2.32,1.11,4.14,4.14,0,0,0,2.59-.88,12.89,12.89,0,0,0,2.37-2.54L346,334.68a7.79,7.79,0,0,0-1.42-.46,8.35,8.35,0,0,0-1.6-.14A4.91,4.91,0,0,0,339.27,335.58Zm19.34-.4a9.21,9.21,0,0,1,2.92-2.75,6.84,6.84,0,0,1,3.41-.91,4.57,4.57,0,0,1,3.24,1.17,4,4,0,0,1,1.27,3.05,5.9,5.9,0,0,1-1.44,3.94,9.13,9.13,0,0,1-4.3,2.6l4.19,8.21h-3.59l-4.43-9.05a12.5,12.5,0,0,0,4.71-2.16,4.05,4.05,0,0,0,1.44-3.19,2,2,0,0,0-.52-1.5,2.11,2.11,0,0,0-1.48-.51,5.17,5.17,0,0,0-3.24,1.36,10.3,10.3,0,0,0-2.78,3.92l-1.55,11.13h-3.2l3.66-26,3.24-.39Zm25.9,6.19a27.07,27.07,0,0,1-8.87,2.22q.11,4.61,4,4.61a7.21,7.21,0,0,0,2.49-.43,10.37,10.37,0,0,0,2.47-1.3l1.37,2.19a11.2,11.2,0,0,1-6.65,2.25,6.81,6.81,0,0,1-5.23-2,7.84,7.84,0,0,1-1.85-5.54,16.49,16.49,0,0,1,1-5.51,10.42,10.42,0,0,1,3.12-4.54,8.15,8.15,0,0,1,5.45-1.81,6.27,6.27,0,0,1,4.35,1.37,4.32,4.32,0,0,1,1.53,3.34A5.36,5.36,0,0,1,384.51,341.37Zm-2.27-1.76a3.42,3.42,0,0,0,2.06-3.27,2.33,2.33,0,0,0-.6-1.55,2.4,2.4,0,0,0-1.93-.71,4.72,4.72,0,0,0-4.12,2.05,11,11,0,0,0-1.83,5A20.23,20.23,0,0,0,382.24,339.61ZM403,331.76l-.95,3.13a6.28,6.28,0,0,0-1.51-.17,3.89,3.89,0,0,0-3,1.49,13.9,13.9,0,0,0-2.3,4.46l-1.41,9.82h-3.2l2.6-18.55H396l-.21,3.8a8.37,8.37,0,0,1,2.41-3.17,4.81,4.81,0,0,1,3-1.05A7.78,7.78,0,0,1,403,331.76Zm8.52,18.9a13.46,13.46,0,0,1-3.73,5.07,11.05,11.05,0,0,1-5.95,2.25l-.14-2.53a10.65,10.65,0,0,0,3.08-.92,6.49,6.49,0,0,0,2-1.53,13.63,13.63,0,0,0,1.65-2.51h-1.19l-3.56-18.55h3.38L409.68,348l7.11-16.08h3.34ZM44.37,308.29V173.66H55.48V308.29Zm41.57,1q-8.09,0-12-4.71t-4.55-14.13c-.11-1.46-.19-2.92-.25-4.38a35.58,35.58,0,0,1,.09-4.38,34.3,34.3,0,0,1,4.12-15.14q3.61-6.4,12.87-11.78,3.54-2,7.41-4t7.74-3.79v-21.2q0-5.55-2.1-8.16t-7.66-2.61q-4.71,0-7.07,2.19c-1.57,1.46-2.41,4.2-2.52,8.24-.12,1.91-.17,4.49-.17,7.74s0,6.12.17,8.59H71.13c-.12-2.13-.2-4.66-.26-7.58s0-5.49.09-7.74q.5-10.77,5.3-15.56t15.9-4.8q11.63,0,15.91,5.13t4.63,16.58l-.17,80.44H101.42v-9.08H99.57a17.76,17.76,0,0,1-5,7.49Q91.5,309.3,85.94,309.3Zm3.87-8.58q8.23,0,11.61-9.59V256.29q-2.86,1.35-5.89,2.95a54.58,54.58,0,0,0-6.9,4.46,17.33,17.33,0,0,0-6.48,7.91,31.89,31.89,0,0,0-1.77,10.09,27.23,27.23,0,0,0-.08,3.79c0,1.4.08,2.84.08,4.29a14.31,14.31,0,0,0,3,8.08A8.06,8.06,0,0,0,89.81,300.72ZM196.34,173.66h11.1V308.29h-11.1v-8.92h-2.19a22.48,22.48,0,0,1-5.81,7.49q-3.28,2.61-9,2.61-8.09,0-12-4.63t-4.21-15.39q-.33-14.47-.34-30.89t.34-32.39q.34-10.77,4.38-15.4t11.95-4.63q5.88,0,9.08,2.52a22.16,22.16,0,0,1,5.73,7.58h2ZM183,300.72q9.93,0,13.3-10.26v-65.3q-1.69-5.39-5.14-7.83a13.81,13.81,0,0,0-8.16-2.44c-2.92,0-5,.82-6.39,2.44s-2.08,4.29-2.19,8q-.84,34.85,0,65c.11,3.7.81,6.37,2.1,8S180,300.72,183,300.72Zm64.62,8.75q-11.78,0-16.57-5.05t-5.3-16.83q-.34-9.07-.43-19.35t0-20.62q.09-10.35.43-19.6.5-11.78,5.3-16.83t16.57-5.05q11.79,0,16.5,5.13T269.37,228q.51,13.64.51,29.7t-.51,29.87q-.5,11.63-5.21,16.75T247.66,309.47Zm0-8.92c3.71,0,6.37-.78,8-2.35s2.49-4.32,2.61-8.25q.33-12,.42-22.05t0-20.19q-.09-10.1-.42-21.88c-.12-4-1-6.84-2.53-8.42s-4.26-2.35-8.08-2.35-6.53.78-8.16,2.35-2.5,4.38-2.61,8.42q-.33,11.78-.5,21.88t0,20.19q.17,10.11.5,22.05.17,5.9,2.61,8.25T247.66,300.55Zm38.21,7.74v-101H297v9.59h2.36q1.35-5.55,4.46-7.66a14.68,14.68,0,0,1,8.33-2.1c2.13,0,3.87.06,5.22.17v8.92h-5q-7.25,0-10.6,2.61T297,227.34v81Zm53.51,1q-8.07,0-11.94-4.71t-4.55-14.13c-.11-1.46-.19-2.92-.25-4.38a37.67,37.67,0,0,1,.08-4.38,34.31,34.31,0,0,1,4.13-15.14q3.61-6.4,12.87-11.78,3.54-2,7.41-4t7.74-3.79v-21.2q0-5.55-2.11-8.16t-7.65-2.61q-4.71,0-7.07,2.19c-1.57,1.46-2.41,4.2-2.53,8.24q-.17,2.87-.16,7.74t.16,8.59H324.58c-.12-2.13-.2-4.66-.26-7.58s0-5.49.09-7.74q.49-10.77,5.3-15.56t15.9-4.8q11.61,0,15.91,5.13t4.62,16.58L366,308.29H354.87v-9.08H353a17.76,17.76,0,0,1-5,7.49Q344.95,309.3,339.38,309.3Zm3.88-8.58q8.24,0,11.61-9.59V256.29q-2.87,1.35-5.89,2.95a54.58,54.58,0,0,0-6.9,4.46,17.2,17.2,0,0,0-6.48,7.91,31.89,31.89,0,0,0-1.77,10.09,27.23,27.23,0,0,0-.08,3.79c.05,1.4.08,2.84.08,4.29a14.31,14.31,0,0,0,2.95,8.08A8.06,8.06,0,0,0,343.26,300.72ZM407,309.47q-11.78,0-16.16-4.79t-4.54-15.74v-72.7h-6.9v-8.92h7.07V178.71H398l-.16,28.61h15v8.92H397.62V290c0,4.15.56,7,1.68,8.41s3.76,2.19,7.91,2.19c1.57,0,2.86,0,3.87-.08a29.43,29.43,0,0,0,3.37-.42v8.58A29.4,29.4,0,0,1,407,309.47Zm41.57,0q-11.78,0-16.15-4.79t-4.55-15.74v-72.7H421v-8.92h7.07V178.71h11.44l-.16,28.61h15v8.92H439.19V290c0,4.15.56,7,1.68,8.41s3.76,2.19,7.91,2.19c1.57,0,2.86,0,3.87-.08a29.43,29.43,0,0,0,3.37-.42v8.58A29.35,29.35,0,0,1,448.61,309.47Zm32.32-.17q-8.08,0-11.95-4.71t-4.55-14.13c-.11-1.46-.2-2.92-.25-4.38a37.67,37.67,0,0,1,.08-4.38,34.31,34.31,0,0,1,4.13-15.14q3.62-6.4,12.87-11.78c2.36-1.35,4.82-2.67,7.41-4s5.16-2.55,7.74-3.79v-21.2q0-5.55-2.1-8.16t-7.66-2.61q-4.71,0-7.07,2.19c-1.57,1.46-2.42,4.2-2.52,8.24-.12,1.91-.17,4.49-.17,7.74s.05,6.12.17,8.59H466.12c-.12-2.13-.2-4.66-.26-7.58s0-5.49.09-7.74q.49-10.77,5.3-15.56t15.9-4.8q11.63,0,15.91,5.13t4.62,16.58l-.16,80.44H496.41v-9.08h-1.85a17.76,17.76,0,0,1-5,7.49Q486.49,309.3,480.93,309.3Zm3.87-8.58q8.24,0,11.61-9.59V256.29q-2.87,1.35-5.89,2.95a54.58,54.58,0,0,0-6.9,4.46,17.2,17.2,0,0,0-6.48,7.91,31.89,31.89,0,0,0-1.77,10.09,27.23,27.23,0,0,0-.08,3.79c0,1.4.08,2.84.08,4.29a14.31,14.31,0,0,0,2.95,8.08A8.06,8.06,0,0,0,484.8,300.72Z"/></clipPath><clipPath id="clip-path-2"><path class="cls-1" d="M242.28,169.56a1.72,1.72,0,0,1-1.74-1.07c-1.44-2.63-1.3-6-1.08-7.76a3.31,3.31,0,0,1-.91-.07l-.5-.12-.12-.5c-.86-3.73.81-7.14,1.91-8.87a2.36,2.36,0,0,1-.37-.22l-.34-.26v-.43a10.48,10.48,0,0,1,1.8-5.27,17.7,17.7,0,0,0,2.26-4.54c0-.14,1-6.77,11.36-11a13.16,13.16,0,0,1,4.3-1c-.65-4.56,2.36-9.7,2.5-9.93l.37-.61.22.08c.51-3.81,3.31-8.1,3.46-8.33l.35-.54.61.2a2.1,2.1,0,0,1,.3.15c.78-3.11,3.52-7.07,3.91-7.61l.32-.45.53.11.13,0c1.32-3.94,6.53-8.69,7.23-9.32l.64-.58.56.66a20.56,20.56,0,0,1,4.47,8.36l.4-.14.55-.18.36.46a13.23,13.23,0,0,1,2.46,10.38,2.64,2.64,0,0,1,.68,0l.43,0,.22.37c1.33,2.22,1.12,5.68.75,8.08l.2,0,.68-.06.2.65c.78,2.55.11,5.91-.35,7.67a12.48,12.48,0,0,1,5.71,1l.77.39-.41.76a2.63,2.63,0,0,1-.2.33c6,.1,9.92,3.07,11.72,6.1.73,1.23.91,2.12.54,2.64a2.12,2.12,0,0,1-.58.54c6.2,5.61,5.27,15,5.22,15.43l-.07.69-.31,0c1.59,4.13.67,10.76.63,11.09a1.36,1.36,0,0,1-.75,1.15,1.17,1.17,0,0,1-1.11-.1l-.21-.14-.09-.22a2.08,2.08,0,0,0-2-.88h-.09a10,10,0,0,1-4.07-1.15,1.5,1.5,0,0,1-.61.5l-.28.07c-5.12.35-8.27-3.3-9.75-5.73l-.19.15-.34.23-.38-.12c-3.53-1.05-5.72-4.41-6.75-6.44a1.16,1.16,0,0,1-.22.17l-.29.19-.35-.08c-2.81-.64-5.75-5.21-7.23-7.84-3.67,10.27-10.88,11.7-11.2,11.76l-.49.09-.27-.33c-4.36,4.87-9,4.88-9.19,4.87h-.67l-.05-.24c-4.31,4.06-6.37,3-6.78,2.65h0a22.49,22.49,0,0,1-7.48,4A3.44,3.44,0,0,1,242.28,169.56Zm-.66-11.24-.33,1.52s-1,4.72.78,8c0,0,.26.1.71,0A21.05,21.05,0,0,0,251,163l1.23,1.12c.87-.09,2.79-.91,5.75-4.19l4.85-5.38-3.49,6.35a1.55,1.55,0,0,0-.15.35c1.58-.27,5-1.33,8.07-5.49l4.41-5.91-2.93,6.65c2-.69,7-3.25,9.52-11.7.13-1.39.11-5.06-1.51-6.55a3,3,0,0,0-2.63-.63,1.67,1.67,0,0,1-.9.22,1.5,1.5,0,0,1-1.05-.55c-1.93-2.32-8.85-9.64-16.94-6.32-9.5,3.91-10.36,9.78-10.37,9.84A18.2,18.2,0,0,1,242.3,146a8.36,8.36,0,0,0-1.43,3.76.62.62,0,0,0,.23,0l2.59-.73L242,151.06s-3.13,3.81-2.52,8a2.87,2.87,0,0,0,.72-.16ZM309.94,165a4.11,4.11,0,0,1,2.55.77c.32-3,.46-8.66-1.42-10.82l1.13-1.08c.05-2.67-.34-10-5.81-13.87l-1.84-1.32,2.26-.2a2.23,2.23,0,0,0,.83-.24,8.64,8.64,0,0,0-2.63-3.45c-1.88-1.56-5.23-3.28-10.59-2.64l-.36-1.63a3.12,3.12,0,0,0,.9-.51c-2.56-.69-9.6-1.54-18.95,6a4,4,0,0,1,1.85,1c2,1.83,2.14,5.4,2.09,7.1,1,2.11,4.17,7.54,6.65,8.59a.66.66,0,0,0,.13-.37v-4.75l1.62,4.47s1.94,5.24,5.83,6.79a.59.59,0,0,0,0-.34c0-.11-.07-.17-.08-.2l1.54-.67c0,.09.08.18.11.27.51,1.16,3.13,6.5,8.45,6.54l-1.92-2.92,3.2,1.92a10.52,10.52,0,0,0,4.38,1.56Zm-49.37-36.52c6.21.56,11,5.56,12.75,7.61,6.39-5.67,11.89-7.64,15.95-8.12a17.41,17.41,0,0,0,.73-6.32,1,1,0,0,0-.14.23c-.06.25-.1.4-.11.44l-1.64-.35a2.59,2.59,0,0,1,.15-.58c.34-1.47,1.25-5.9.1-8.51a1.77,1.77,0,0,0-.77.47L285,116.08l1.25-3.59s1.85-5.46-1.37-10.14a.67.67,0,0,0-.19.13.49.49,0,0,0,.08-.28l-1.67.17a.49.49,0,0,0,0-.12,16.81,16.81,0,0,0-3.78-8.19c-2.77,2.61-6.39,6.85-6.33,9.16a2.9,2.9,0,0,1,.05.48l-1.66.18s0-.07,0-.11c-1.59,2.44-3.47,6-3.13,7.49l1,4.48-2.54-3.84c-.11-.16-.24-.34-.37-.5-1.23,2.09-3.12,6-2.68,8.45.06.21.11.4.14.54l-1.62.42,0-.08C261.27,122.52,260.05,125.74,260.57,128.48Z"/></clipPath><clipPath id="clip-path-3"><path class="cls-1" d="M245.91,159.64l-.72-.42a54,54,0,0,1,12.11-14.77c-7.34-1.09-12.55,4.22-12.61,4.27l-.6-.58c.06-.06,5.92-6,14.07-4.39l.15-.12a41,41,0,0,1,9-5.44c-8.7-4-13.74-2.32-13.8-2.3l-.28-.79c.23-.08,5.65-2,15.11,2.65a23.18,23.18,0,0,1,4.45-1.37l.14.83-.5.1c-3.92,5.31-4.39,13.86-4.39,13.94l-.84,0c0-.34.44-8.06,4-13.56a35,35,0,0,0-8.05,3.68C261,143.9,259,153,258.93,153.08l-.82-.18c.07-.33,1.52-6.9,3.35-10.53-.85.58-1.73,1.21-2.62,1.92a47.76,47.76,0,0,0-6.21,5.89h0c-1.39,1.51-2,6.19-2,6.24l-.83-.11a25.3,25.3,0,0,1,.75-3.62A60.42,60.42,0,0,0,245.91,159.64Zm48.34-4.7a15.53,15.53,0,0,1-1.81-5c-.55-2.78-1-8.06-1.13-9.28a24.1,24.1,0,0,0-9.53-3.37,23.92,23.92,0,0,1,4.76,8.72l-.82.2c-1-4.21-4.4-8.21-5.12-9a11.61,11.61,0,0,0-3.63.27l-.24-.81c.33-.1,5.23-1.47,12.25,1.77v-.07c1.1,0,4.21-.26,5.37-1,1.56-1,6.39-2.26,8.64-.41l-.53.65c-1.85-1.51-6.23-.41-7.67.47a12,12,0,0,1-4.42,1,34.34,34.34,0,0,1,6.23,4.28c1.42-.25,9-1.29,13.85,4.41l-.63.54c-4-4.75-10.14-4.51-12.39-4.23a54.21,54.21,0,0,1,7,7.74l-.67.5c-.37-.49-.74-1-1.1-1.42a17.79,17.79,0,0,1-.06,3.79l-.83-.11c.14-1.15.33-4.33-.49-5.33a41.84,41.84,0,0,0-9.08-8.07c.17,1.85.6,6.2,1.06,8.57a15,15,0,0,0,1.69,4.73Zm-17.86-19.88-.81-.21s.05-.2.13-.52a78,78,0,0,0-3.76-8.79,92,92,0,0,1-4.12-9.54l.78-.29a95.41,95.41,0,0,0,4.06,9.41,65.6,65.6,0,0,1,3.39,7.76c.71-3,2.05-9,2.94-15.14-.57-.75-3.9-5.2-4.46-8.15l.82-.15c.43,2.24,2.72,5.61,3.81,7.11.77-5.67,1.11-11.35.2-14.89l.81-.21c1.36,5.3.07,15-1.37,22.62,1.71-1.33,5.29-4.46,5.64-7.72l.83.09c-.45,4.25-5.6,8.07-6.7,8.85C277.54,130.6,276.5,134.66,276.39,135.06Z"/></clipPath></defs><g id="Capa_1" data-name="Capa 1"><polygon class="cls-1" points="365.63 164.9 276.02 22.08 186.43 164.9 176.49 158.66 276.02 0 375.56 158.67 365.63 164.9"/><polygon class="cls-1" points="552.05 439.99 0 439.99 74.62 321.04 84.56 327.28 21.21 428.26 530.84 428.26 467.5 327.28 477.43 321.05 552.05 439.99"/><path class="cls-1" d="M176.07,339.22a4.41,4.41,0,0,1,1.36,3.52,7.05,7.05,0,0,1-2.45,5.63q-2.44,2.11-8,2.12h-6.69l3.41-24.25h6.69a10,10,0,0,1,5.53,1.35,4.54,4.54,0,0,1,2.07,4.07,5.38,5.38,0,0,1-1.54,4,7.48,7.48,0,0,1-3.88,2A7.3,7.3,0,0,1,176.07,339.22Zm-3.62,7.24a4.81,4.81,0,0,0,1.53-3.79q0-3.59-4.79-3.59h-4L164,347.81h3.13Q170.92,347.81,172.45,346.46Zm-5.86-17.58-1.06,7.63h3.56a6.3,6.3,0,0,0,3.92-1.19,4.22,4.22,0,0,0,1.57-3.56,2.36,2.36,0,0,0-1.11-2.25,6.1,6.1,0,0,0-3-.63Zm16.34,20a8.1,8.1,0,0,1-1.84-5.64,15.67,15.67,0,0,1,1-5.29,10.78,10.78,0,0,1,3.12-4.56,8.12,8.12,0,0,1,5.52-1.86,6.69,6.69,0,0,1,5.25,2,8.12,8.12,0,0,1,1.83,5.63,15.87,15.87,0,0,1-1,5.26,10.71,10.71,0,0,1-3.1,4.57,8,8,0,0,1-5.52,1.89A6.76,6.76,0,0,1,182.93,348.87Zm9-2.1a8.73,8.73,0,0,0,1.94-3.69,17.11,17.11,0,0,0,.56-4.24q0-4.72-3.8-4.72a4.58,4.58,0,0,0-3.59,1.53,8.72,8.72,0,0,0-1.95,3.7,16.15,16.15,0,0,0-.58,4.24c0,3.14,1.27,4.71,3.83,4.71A4.58,4.58,0,0,0,191.89,346.77Zm11.39,2.92a4.54,4.54,0,0,1-1.22-3.36,7.49,7.49,0,0,1,.11-1.23L204,331.94h3.21l-1.83,13a6.2,6.2,0,0,0-.11,1.16,2.45,2.45,0,0,0,.51,1.73,2,2,0,0,0,1.53.52,4.38,4.38,0,0,0,2.94-1.19A17,17,0,0,0,213,344l1.69-12.07h3.21l-2.61,18.55h-2.75l.25-3.42a11.36,11.36,0,0,1-2.83,2.87,5.78,5.78,0,0,1-3.29,1A4.54,4.54,0,0,1,203.28,349.69Zm22.68-4.1c-.05.47-.07.78-.07.92a1.75,1.75,0,0,0,.4,1.28,1.71,1.71,0,0,0,1.25.41,4.09,4.09,0,0,0,1.25-.2,9.76,9.76,0,0,0,1.43-.58l1.05,2.26a7.53,7.53,0,0,1-4.11,1.23,4.58,4.58,0,0,1-3.31-1.11,4.13,4.13,0,0,1-1.16-3.15,6.53,6.53,0,0,1,.07-1.13l1.55-11.08H221.1l.35-2.5h3.35l1.16-4.3,2.53-.28-.63,4.58h4.36l-.7,2.5h-4Zm14.22-13.65-2.61,18.55h-3.2L237,331.94Zm-2.36-5.09a2,2,0,0,1-.56-1.42,2.29,2.29,0,0,1,.7-1.71,2.37,2.37,0,0,1,1.73-.69,2,2,0,0,1,1.51.57,2,2,0,0,1,.56,1.44,2.29,2.29,0,0,1-.7,1.71,2.42,2.42,0,0,1-1.73.68A2,2,0,0,1,237.82,326.85Zm17.25,21.38a7.38,7.38,0,0,1-2.29,1.92,5.92,5.92,0,0,1-2.92.76,5.28,5.28,0,0,1-4.35-1.94,8,8,0,0,1-1.57-5.17,16.18,16.18,0,0,1,1-5.63,11.32,11.32,0,0,1,3.26-4.74,8.23,8.23,0,0,1,5.59-1.91,14.53,14.53,0,0,1,3.28.35,15.13,15.13,0,0,1,3.34,1.23l-3.55,24.57-3.21.42Zm-2-.77a12.91,12.91,0,0,0,2.38-2.54L257,334.68a9.31,9.31,0,0,0-1.46-.46,8.43,8.43,0,0,0-1.6-.14,4.91,4.91,0,0,0-3.68,1.5,9,9,0,0,0-2.15,3.73,15.26,15.26,0,0,0-.69,4.52,5.78,5.78,0,0,0,.81,3.4,2.71,2.71,0,0,0,2.33,1.11A4.09,4.09,0,0,0,253.11,347.46Zm13,2.23a4.54,4.54,0,0,1-1.21-3.36,7.49,7.49,0,0,1,.11-1.23l1.86-13.16h3.2l-1.83,13a7.09,7.09,0,0,0-.1,1.16,2.45,2.45,0,0,0,.51,1.73,2,2,0,0,0,1.53.52,4.39,4.39,0,0,0,2.94-1.19,17,17,0,0,0,2.69-3.17l1.69-12.07h3.2l-2.6,18.55h-2.75l.25-3.42a11.52,11.52,0,0,1-2.83,2.87,5.8,5.8,0,0,1-3.29,1A4.55,4.55,0,0,1,266.13,349.69Zm30.68-8.32a27.14,27.14,0,0,1-8.87,2.22q.1,4.61,4,4.61a7.26,7.26,0,0,0,2.5-.43,10.13,10.13,0,0,0,2.46-1.3l1.38,2.19a11.23,11.23,0,0,1-6.66,2.25,6.79,6.79,0,0,1-5.22-2,7.79,7.79,0,0,1-1.85-5.54,16.24,16.24,0,0,1,1-5.51,10.32,10.32,0,0,1,3.11-4.54,8.16,8.16,0,0,1,5.46-1.81,6.26,6.26,0,0,1,4.34,1.37,4.32,4.32,0,0,1,1.53,3.34A5.35,5.35,0,0,1,296.81,341.37Zm-2.27-1.76a3.42,3.42,0,0,0,2.06-3.27,2.33,2.33,0,0,0-.6-1.55,2.42,2.42,0,0,0-1.94-.71,4.74,4.74,0,0,0-4.12,2.05,11,11,0,0,0-1.83,5A20.37,20.37,0,0,0,294.54,339.61Zm33.5-.39a4.37,4.37,0,0,1,1.36,3.52,7.05,7.05,0,0,1-2.45,5.63q-2.44,2.11-8,2.12h-6.69l3.42-24.25h6.68a10,10,0,0,1,5.53,1.35,4.54,4.54,0,0,1,2.08,4.07,5.39,5.39,0,0,1-1.55,4,7.49,7.49,0,0,1-3.87,2A7.31,7.31,0,0,1,328,339.22Zm-3.62,7.24a4.81,4.81,0,0,0,1.53-3.79q0-3.59-4.79-3.59h-4l-1.23,8.73h3.13Q322.89,347.81,324.42,346.46Zm-5.86-17.58-1.06,7.63h3.56a6.3,6.3,0,0,0,3.92-1.19,4.22,4.22,0,0,0,1.57-3.56,2.36,2.36,0,0,0-1.11-2.25,6.1,6.1,0,0,0-3-.63Zm27.61,3a16.33,16.33,0,0,1,3.22,1.2l-1.9,13.16a6.83,6.83,0,0,0-.07.78,1.76,1.76,0,0,0,.26,1,1.86,1.86,0,0,0,.93.63l-.91,2.22a4,4,0,0,1-2.29-.92,3.35,3.35,0,0,1-1-2.18,9.16,9.16,0,0,1-2.54,2.27,5.82,5.82,0,0,1-3,.83,5.26,5.26,0,0,1-4.36-1.94A8,8,0,0,1,333,343.8a16.17,16.17,0,0,1,1-5.63,11.41,11.41,0,0,1,3.26-4.74,8.24,8.24,0,0,1,5.6-1.91A13.6,13.6,0,0,1,346.17,331.9Zm-6.9,3.68a9,9,0,0,0-2.15,3.73,15.25,15.25,0,0,0-.68,4.52,5.78,5.78,0,0,0,.81,3.4,2.69,2.69,0,0,0,2.32,1.11,4.14,4.14,0,0,0,2.59-.88,12.89,12.89,0,0,0,2.37-2.54L346,334.68a7.79,7.79,0,0,0-1.42-.46,8.35,8.35,0,0,0-1.6-.14A4.91,4.91,0,0,0,339.27,335.58Zm19.34-.4a9.21,9.21,0,0,1,2.92-2.75,6.84,6.84,0,0,1,3.41-.91,4.57,4.57,0,0,1,3.24,1.17,4,4,0,0,1,1.27,3.05,5.9,5.9,0,0,1-1.44,3.94,9.13,9.13,0,0,1-4.3,2.6l4.19,8.21h-3.59l-4.43-9.05a12.5,12.5,0,0,0,4.71-2.16,4.05,4.05,0,0,0,1.44-3.19,2,2,0,0,0-.52-1.5,2.11,2.11,0,0,0-1.48-.51,5.17,5.17,0,0,0-3.24,1.36,10.3,10.3,0,0,0-2.78,3.92l-1.55,11.13h-3.2l3.66-26,3.24-.39Zm25.9,6.19a27.07,27.07,0,0,1-8.87,2.22q.11,4.61,4,4.61a7.21,7.21,0,0,0,2.49-.43,10.37,10.37,0,0,0,2.47-1.3l1.37,2.19a11.2,11.2,0,0,1-6.65,2.25,6.81,6.81,0,0,1-5.23-2,7.84,7.84,0,0,1-1.85-5.54,16.49,16.49,0,0,1,1-5.51,10.42,10.42,0,0,1,3.12-4.54,8.15,8.15,0,0,1,5.45-1.81,6.27,6.27,0,0,1,4.35,1.37,4.32,4.32,0,0,1,1.53,3.34A5.36,5.36,0,0,1,384.51,341.37Zm-2.27-1.76a3.42,3.42,0,0,0,2.06-3.27,2.33,2.33,0,0,0-.6-1.55,2.4,2.4,0,0,0-1.93-.71,4.72,4.72,0,0,0-4.12,2.05,11,11,0,0,0-1.83,5A20.23,20.23,0,0,0,382.24,339.61ZM403,331.76l-.95,3.13a6.28,6.28,0,0,0-1.51-.17,3.89,3.89,0,0,0-3,1.49,13.9,13.9,0,0,0-2.3,4.46l-1.41,9.82h-3.2l2.6-18.55H396l-.21,3.8a8.37,8.37,0,0,1,2.41-3.17,4.81,4.81,0,0,1,3-1.05A7.78,7.78,0,0,1,403,331.76Zm8.52,18.9a13.46,13.46,0,0,1-3.73,5.07,11.05,11.05,0,0,1-5.95,2.25l-.14-2.53a10.65,10.65,0,0,0,3.08-.92,6.49,6.49,0,0,0,2-1.53,13.63,13.63,0,0,0,1.65-2.51h-1.19l-3.56-18.55h3.38L409.68,348l7.11-16.08h3.34ZM44.37,308.29V173.66H55.48V308.29Zm41.57,1q-8.09,0-12-4.71t-4.55-14.13c-.11-1.46-.19-2.92-.25-4.38a35.58,35.58,0,0,1,.09-4.38,34.3,34.3,0,0,1,4.12-15.14q3.61-6.4,12.87-11.78,3.54-2,7.41-4t7.74-3.79v-21.2q0-5.55-2.1-8.16t-7.66-2.61q-4.71,0-7.07,2.19c-1.57,1.46-2.41,4.2-2.52,8.24-.12,1.91-.17,4.49-.17,7.74s0,6.12.17,8.59H71.13c-.12-2.13-.2-4.66-.26-7.58s0-5.49.09-7.74q.5-10.77,5.3-15.56t15.9-4.8q11.63,0,15.91,5.13t4.63,16.58l-.17,80.44H101.42v-9.08H99.57a17.76,17.76,0,0,1-5,7.49Q91.5,309.3,85.94,309.3Zm3.87-8.58q8.23,0,11.61-9.59V256.29q-2.86,1.35-5.89,2.95a54.58,54.58,0,0,0-6.9,4.46,17.33,17.33,0,0,0-6.48,7.91,31.89,31.89,0,0,0-1.77,10.09,27.23,27.23,0,0,0-.08,3.79c0,1.4.08,2.84.08,4.29a14.31,14.31,0,0,0,3,8.08A8.06,8.06,0,0,0,89.81,300.72ZM196.34,173.66h11.1V308.29h-11.1v-8.92h-2.19a22.48,22.48,0,0,1-5.81,7.49q-3.28,2.61-9,2.61-8.09,0-12-4.63t-4.21-15.39q-.33-14.47-.34-30.89t.34-32.39q.34-10.77,4.38-15.4t11.95-4.63q5.88,0,9.08,2.52a22.16,22.16,0,0,1,5.73,7.58h2ZM183,300.72q9.93,0,13.3-10.26v-65.3q-1.69-5.39-5.14-7.83a13.81,13.81,0,0,0-8.16-2.44c-2.92,0-5,.82-6.39,2.44s-2.08,4.29-2.19,8q-.84,34.85,0,65c.11,3.7.81,6.37,2.1,8S180,300.72,183,300.72Zm64.62,8.75q-11.78,0-16.57-5.05t-5.3-16.83q-.34-9.07-.43-19.35t0-20.62q.09-10.35.43-19.6.5-11.78,5.3-16.83t16.57-5.05q11.79,0,16.5,5.13T269.37,228q.51,13.64.51,29.7t-.51,29.87q-.5,11.63-5.21,16.75T247.66,309.47Zm0-8.92c3.71,0,6.37-.78,8-2.35s2.49-4.32,2.61-8.25q.33-12,.42-22.05t0-20.19q-.09-10.1-.42-21.88c-.12-4-1-6.84-2.53-8.42s-4.26-2.35-8.08-2.35-6.53.78-8.16,2.35-2.5,4.38-2.61,8.42q-.33,11.78-.5,21.88t0,20.19q.17,10.11.5,22.05.17,5.9,2.61,8.25T247.66,300.55Zm38.21,7.74v-101H297v9.59h2.36q1.35-5.55,4.46-7.66a14.68,14.68,0,0,1,8.33-2.1c2.13,0,3.87.06,5.22.17v8.92h-5q-7.25,0-10.6,2.61T297,227.34v81Zm53.51,1q-8.07,0-11.94-4.71t-4.55-14.13c-.11-1.46-.19-2.92-.25-4.38a37.67,37.67,0,0,1,.08-4.38,34.31,34.31,0,0,1,4.13-15.14q3.61-6.4,12.87-11.78,3.54-2,7.41-4t7.74-3.79v-21.2q0-5.55-2.11-8.16t-7.65-2.61q-4.71,0-7.07,2.19c-1.57,1.46-2.41,4.2-2.53,8.24q-.17,2.87-.16,7.74t.16,8.59H324.58c-.12-2.13-.2-4.66-.26-7.58s0-5.49.09-7.74q.49-10.77,5.3-15.56t15.9-4.8q11.61,0,15.91,5.13t4.62,16.58L366,308.29H354.87v-9.08H353a17.76,17.76,0,0,1-5,7.49Q344.95,309.3,339.38,309.3Zm3.88-8.58q8.24,0,11.61-9.59V256.29q-2.87,1.35-5.89,2.95a54.58,54.58,0,0,0-6.9,4.46,17.2,17.2,0,0,0-6.48,7.91,31.89,31.89,0,0,0-1.77,10.09,27.23,27.23,0,0,0-.08,3.79c.05,1.4.08,2.84.08,4.29a14.31,14.31,0,0,0,2.95,8.08A8.06,8.06,0,0,0,343.26,300.72ZM407,309.47q-11.78,0-16.16-4.79t-4.54-15.74v-72.7h-6.9v-8.92h7.07V178.71H398l-.16,28.61h15v8.92H397.62V290c0,4.15.56,7,1.68,8.41s3.76,2.19,7.91,2.19c1.57,0,2.86,0,3.87-.08a29.43,29.43,0,0,0,3.37-.42v8.58A29.4,29.4,0,0,1,407,309.47Zm41.57,0q-11.78,0-16.15-4.79t-4.55-15.74v-72.7H421v-8.92h7.07V178.71h11.44l-.16,28.61h15v8.92H439.19V290c0,4.15.56,7,1.68,8.41s3.76,2.19,7.91,2.19c1.57,0,2.86,0,3.87-.08a29.43,29.43,0,0,0,3.37-.42v8.58A29.35,29.35,0,0,1,448.61,309.47Zm32.32-.17q-8.08,0-11.95-4.71t-4.55-14.13c-.11-1.46-.2-2.92-.25-4.38a37.67,37.67,0,0,1,.08-4.38,34.31,34.31,0,0,1,4.13-15.14q3.62-6.4,12.87-11.78c2.36-1.35,4.82-2.67,7.41-4s5.16-2.55,7.74-3.79v-21.2q0-5.55-2.1-8.16t-7.66-2.61q-4.71,0-7.07,2.19c-1.57,1.46-2.42,4.2-2.52,8.24-.12,1.91-.17,4.49-.17,7.74s.05,6.12.17,8.59H466.12c-.12-2.13-.2-4.66-.26-7.58s0-5.49.09-7.74q.49-10.77,5.3-15.56t15.9-4.8q11.63,0,15.91,5.13t4.62,16.58l-.16,80.44H496.41v-9.08h-1.85a17.76,17.76,0,0,1-5,7.49Q486.49,309.3,480.93,309.3Zm3.87-8.58q8.24,0,11.61-9.59V256.29q-2.87,1.35-5.89,2.95a54.58,54.58,0,0,0-6.9,4.46,17.2,17.2,0,0,0-6.48,7.91,31.89,31.89,0,0,0-1.77,10.09,27.23,27.23,0,0,0-.08,3.79c0,1.4.08,2.84.08,4.29a14.31,14.31,0,0,0,2.95,8.08A8.06,8.06,0,0,0,484.8,300.72Z"/><g class="cls-2"><rect class="cls-1" x="18.86" y="86.41" width="515.14" height="285.76" transform="translate(552.87 458.58) rotate(180)"/></g><path class="cls-1" d="M242.28,169.56a1.72,1.72,0,0,1-1.74-1.07c-1.44-2.63-1.3-6-1.08-7.76a3.31,3.31,0,0,1-.91-.07l-.5-.12-.12-.5c-.86-3.73.81-7.14,1.91-8.87a2.36,2.36,0,0,1-.37-.22l-.34-.26v-.43a10.48,10.48,0,0,1,1.8-5.27,17.7,17.7,0,0,0,2.26-4.54c0-.14,1-6.77,11.36-11a13.16,13.16,0,0,1,4.3-1c-.65-4.56,2.36-9.7,2.5-9.93l.37-.61.22.08c.51-3.81,3.31-8.1,3.46-8.33l.35-.54.61.2a2.1,2.1,0,0,1,.3.15c.78-3.11,3.52-7.07,3.91-7.61l.32-.45.53.11.13,0c1.32-3.94,6.53-8.69,7.23-9.32l.64-.58.56.66a20.56,20.56,0,0,1,4.47,8.36l.4-.14.55-.18.36.46a13.23,13.23,0,0,1,2.46,10.38,2.64,2.64,0,0,1,.68,0l.43,0,.22.37c1.33,2.22,1.12,5.68.75,8.08l.2,0,.68-.06.2.65c.78,2.55.11,5.91-.35,7.67a12.48,12.48,0,0,1,5.71,1l.77.39-.41.76a2.63,2.63,0,0,1-.2.33c6,.1,9.92,3.07,11.72,6.1.73,1.23.91,2.12.54,2.64a2.12,2.12,0,0,1-.58.54c6.2,5.61,5.27,15,5.22,15.43l-.07.69-.31,0c1.59,4.13.67,10.76.63,11.09a1.36,1.36,0,0,1-.75,1.15,1.17,1.17,0,0,1-1.11-.1l-.21-.14-.09-.22a2.08,2.08,0,0,0-2-.88h-.09a10,10,0,0,1-4.07-1.15,1.5,1.5,0,0,1-.61.5l-.28.07c-5.12.35-8.27-3.3-9.75-5.73l-.19.15-.34.23-.38-.12c-3.53-1.05-5.72-4.41-6.75-6.44a1.16,1.16,0,0,1-.22.17l-.29.19-.35-.08c-2.81-.64-5.75-5.21-7.23-7.84-3.67,10.27-10.88,11.7-11.2,11.76l-.49.09-.27-.33c-4.36,4.87-9,4.88-9.19,4.87h-.67l-.05-.24c-4.31,4.06-6.37,3-6.78,2.65h0a22.49,22.49,0,0,1-7.48,4A3.44,3.44,0,0,1,242.28,169.56Zm-.66-11.24-.33,1.52s-1,4.72.78,8c0,0,.26.1.71,0A21.05,21.05,0,0,0,251,163l1.23,1.12c.87-.09,2.79-.91,5.75-4.19l4.85-5.38-3.49,6.35a1.55,1.55,0,0,0-.15.35c1.58-.27,5-1.33,8.07-5.49l4.41-5.91-2.93,6.65c2-.69,7-3.25,9.52-11.7.13-1.39.11-5.06-1.51-6.55a3,3,0,0,0-2.63-.63,1.67,1.67,0,0,1-.9.22,1.5,1.5,0,0,1-1.05-.55c-1.93-2.32-8.85-9.64-16.94-6.32-9.5,3.91-10.36,9.78-10.37,9.84A18.2,18.2,0,0,1,242.3,146a8.36,8.36,0,0,0-1.43,3.76.62.62,0,0,0,.23,0l2.59-.73L242,151.06s-3.13,3.81-2.52,8a2.87,2.87,0,0,0,.72-.16ZM309.94,165a4.11,4.11,0,0,1,2.55.77c.32-3,.46-8.66-1.42-10.82l1.13-1.08c.05-2.67-.34-10-5.81-13.87l-1.84-1.32,2.26-.2a2.23,2.23,0,0,0,.83-.24,8.64,8.64,0,0,0-2.63-3.45c-1.88-1.56-5.23-3.28-10.59-2.64l-.36-1.63a3.12,3.12,0,0,0,.9-.51c-2.56-.69-9.6-1.54-18.95,6a4,4,0,0,1,1.85,1c2,1.83,2.14,5.4,2.09,7.1,1,2.11,4.17,7.54,6.65,8.59a.66.66,0,0,0,.13-.37v-4.75l1.62,4.47s1.94,5.24,5.83,6.79a.59.59,0,0,0,0-.34c0-.11-.07-.17-.08-.2l1.54-.67c0,.09.08.18.11.27.51,1.16,3.13,6.5,8.45,6.54l-1.92-2.92,3.2,1.92a10.52,10.52,0,0,0,4.38,1.56Zm-49.37-36.52c6.21.56,11,5.56,12.75,7.61,6.39-5.67,11.89-7.64,15.95-8.12a17.41,17.41,0,0,0,.73-6.32,1,1,0,0,0-.14.23c-.06.25-.1.4-.11.44l-1.64-.35a2.59,2.59,0,0,1,.15-.58c.34-1.47,1.25-5.9.1-8.51a1.77,1.77,0,0,0-.77.47L285,116.08l1.25-3.59s1.85-5.46-1.37-10.14a.67.67,0,0,0-.19.13.49.49,0,0,0,.08-.28l-1.67.17a.49.49,0,0,0,0-.12,16.81,16.81,0,0,0-3.78-8.19c-2.77,2.61-6.39,6.85-6.33,9.16a2.9,2.9,0,0,1,.05.48l-1.66.18s0-.07,0-.11c-1.59,2.44-3.47,6-3.13,7.49l1,4.48-2.54-3.84c-.11-.16-.24-.34-.37-.5-1.23,2.09-3.12,6-2.68,8.45.06.21.11.4.14.54l-1.62.42,0-.08C261.27,122.52,260.05,125.74,260.57,128.48Z"/><g class="cls-3"><rect class="cls-1" x="17.78" y="86.41" width="515.14" height="285.76" transform="translate(550.7 458.58) rotate(180)"/></g><path class="cls-1" d="M245.91,159.64l-.72-.42a54,54,0,0,1,12.11-14.77c-7.34-1.09-12.55,4.22-12.61,4.27l-.6-.58c.06-.06,5.92-6,14.07-4.39l.15-.12a41,41,0,0,1,9-5.44c-8.7-4-13.74-2.32-13.8-2.3l-.28-.79c.23-.08,5.65-2,15.11,2.65a23.18,23.18,0,0,1,4.45-1.37l.14.83-.5.1c-3.92,5.31-4.39,13.86-4.39,13.94l-.84,0c0-.34.44-8.06,4-13.56a35,35,0,0,0-8.05,3.68C261,143.9,259,153,258.93,153.08l-.82-.18c.07-.33,1.52-6.9,3.35-10.53-.85.58-1.73,1.21-2.62,1.92a47.76,47.76,0,0,0-6.21,5.89h0c-1.39,1.51-2,6.19-2,6.24l-.83-.11a25.3,25.3,0,0,1,.75-3.62A60.42,60.42,0,0,0,245.91,159.64Zm48.34-4.7a15.53,15.53,0,0,1-1.81-5c-.55-2.78-1-8.06-1.13-9.28a24.1,24.1,0,0,0-9.53-3.37,23.92,23.92,0,0,1,4.76,8.72l-.82.2c-1-4.21-4.4-8.21-5.12-9a11.61,11.61,0,0,0-3.63.27l-.24-.81c.33-.1,5.23-1.47,12.25,1.77v-.07c1.1,0,4.21-.26,5.37-1,1.56-1,6.39-2.26,8.64-.41l-.53.65c-1.85-1.51-6.23-.41-7.67.47a12,12,0,0,1-4.42,1,34.34,34.34,0,0,1,6.23,4.28c1.42-.25,9-1.29,13.85,4.41l-.63.54c-4-4.75-10.14-4.51-12.39-4.23a54.21,54.21,0,0,1,7,7.74l-.67.5c-.37-.49-.74-1-1.1-1.42a17.79,17.79,0,0,1-.06,3.79l-.83-.11c.14-1.15.33-4.33-.49-5.33a41.84,41.84,0,0,0-9.08-8.07c.17,1.85.6,6.2,1.06,8.57a15,15,0,0,0,1.69,4.73Zm-17.86-19.88-.81-.21s.05-.2.13-.52a78,78,0,0,0-3.76-8.79,92,92,0,0,1-4.12-9.54l.78-.29a95.41,95.41,0,0,0,4.06,9.41,65.6,65.6,0,0,1,3.39,7.76c.71-3,2.05-9,2.94-15.14-.57-.75-3.9-5.2-4.46-8.15l.82-.15c.43,2.24,2.72,5.61,3.81,7.11.77-5.67,1.11-11.35.2-14.89l.81-.21c1.36,5.3.07,15-1.37,22.62,1.71-1.33,5.29-4.46,5.64-7.72l.83.09c-.45,4.25-5.6,8.07-6.7,8.85C277.54,130.6,276.5,134.66,276.39,135.06Z"/><g class="cls-4"><rect class="cls-1" x="17.78" y="86.41" width="515.14" height="285.76" transform="translate(550.7 458.58) rotate(180)"/></g></g></svg>