<svg width="42" height="42" viewBox="0 0 42 42" fill="none" xmlns="http://www.w3.org/2000/svg">
<path d="M9.11523 22.75H28.6627L20.1227 31.29C19.4402 31.9725 19.4402 33.0925 20.1227 33.775C20.8052 34.4575 21.9077 34.4575 22.5902 33.775L34.1227 22.2425C34.8052 21.56 34.8052 20.4575 34.1227 19.775L22.6077 8.22498C22.2808 7.89729 21.8369 7.71313 21.374 7.71313C20.9111 7.71313 20.4672 7.89729 20.1402 8.22498C19.4577 8.90748 19.4577 10.01 20.1402 10.6925L28.6627 19.25H9.11523C8.15273 19.25 7.36523 20.0375 7.36523 21C7.36523 21.9625 8.15273 22.75 9.11523 22.75Z" fill="white"/>
</svg>
