<svg width="40" height="39" viewBox="0 0 40 39" fill="none" xmlns="http://www.w3.org/2000/svg">
<path d="M20.0034 34.1916C15.9034 34.1916 15.4201 34.1705 13.8201 34.1022C12.5724 34.0622 11.3408 33.8149 10.1784 33.371C8.16727 32.6079 6.57699 31.0568 5.79508 29.0956C5.35726 27.9582 5.12111 26.7564 5.09675 25.5417C5.00342 23.985 5.00342 23.4747 5.00342 19.5081C5.00342 15.4992 5.02508 15.0312 5.09675 13.4794C5.12165 12.2663 5.35779 11.0663 5.79508 9.93037C6.57614 7.9666 8.169 6.41415 10.1834 5.65337C11.3478 5.2247 12.579 4.99385 13.8234 4.97087C15.4151 4.88312 15.9384 4.88312 20.0034 4.88312C24.1368 4.88312 24.6118 4.90424 26.1868 4.97087C27.4344 4.99405 28.6688 5.22487 29.8368 5.65337C31.8506 6.41501 33.4431 7.96717 34.2251 9.93037C34.6703 11.0828 34.9077 12.3017 34.9267 13.533C35.0201 15.0897 35.0201 15.5984 35.0201 19.5634C35.0201 23.5284 34.9967 24.0484 34.9267 25.5872C34.9019 26.8031 34.6652 28.0059 34.2267 29.1444C33.4428 31.1069 31.8502 32.6586 29.8368 33.4214C28.6705 33.8474 27.4386 34.0776 26.1934 34.1022C24.6018 34.1916 24.0801 34.1916 20.0034 34.1916ZM19.9468 7.45549C15.8701 7.45549 15.4468 7.47499 13.8551 7.54487C12.9051 7.55714 11.9642 7.72807 11.0734 8.05024C9.75801 8.54101 8.71713 9.55173 8.20842 10.8322C7.87544 11.7102 7.7001 12.6376 7.69008 13.5736C7.60175 15.1482 7.60175 15.561 7.60175 19.5081C7.60175 23.4081 7.61675 23.881 7.69008 25.4459C7.705 26.3724 7.88024 27.2899 8.20842 28.1596C8.71788 29.4393 9.75857 30.4492 11.0734 30.94C11.9636 31.2643 12.9048 31.4353 13.8551 31.4454C15.4684 31.5364 15.8934 31.5364 19.9468 31.5364C24.0351 31.5364 24.4584 31.5169 26.0368 31.4454C26.9874 31.4341 27.929 31.2631 28.8201 30.94C30.1275 30.445 31.1616 29.4373 31.6701 28.1629C32.0024 27.2841 32.1777 26.3564 32.1884 25.4199H32.2067C32.2784 23.8664 32.2784 23.452 32.2784 19.4821C32.2784 15.5122 32.2601 15.0946 32.1884 13.5427C32.1735 12.6172 31.9982 11.7008 31.6701 10.8322C31.1628 9.55592 30.1285 8.54634 28.8201 8.05024C27.9292 7.72645 26.9875 7.55546 26.0368 7.54487C24.4251 7.45549 24.0034 7.45549 19.9468 7.45549ZM20.0034 27.014C16.8867 27.016 14.0758 25.1871 12.8815 22.3802C11.6873 19.5734 12.3449 16.3415 14.5478 14.1919C16.7507 12.0422 20.0649 11.3982 22.9447 12.5602C25.8245 13.7221 27.7027 16.4612 27.7034 19.5C27.6988 23.6455 24.2552 27.0059 20.0034 27.014ZM20.0034 14.6217C17.242 14.6217 15.0034 16.8044 15.0034 19.4967C15.0034 22.1891 17.242 24.3717 20.0034 24.3717C22.7648 24.3717 25.0034 22.1891 25.0034 19.4967C24.997 16.8069 22.7622 14.628 20.0034 14.6217ZM28.0034 13.4631C27.0125 13.4595 26.2116 12.6743 26.2134 11.7081C26.2153 10.7419 27.0191 9.95963 28.0101 9.95963C29.001 9.95963 29.8049 10.7419 29.8068 11.7081C29.8072 12.1743 29.6172 12.6214 29.2789 12.9507C28.9405 13.28 28.4815 13.4644 28.0034 13.4631Z" fill="white"/>
</svg>
