<svg width="40" height="39" viewBox="0 0 40 39" fill="none" xmlns="http://www.w3.org/2000/svg">
<path d="M5 34.6807L7.08698 27.0596C5.79965 24.8291 5.12251 22.2989 5.12346 19.7067C5.12677 11.5975 11.7259 5 19.835 5C23.77 5.00166 27.4636 6.5333 30.2412 9.31324C33.0186 12.0932 34.5476 15.7884 34.5462 19.7185C34.5427 27.8275 27.9426 34.4259 19.835 34.4259C19.8345 34.4259 19.8352 34.4259 19.835 34.4259H19.8286C17.3665 34.425 14.9474 33.8075 12.7987 32.6356L5 34.6807ZM13.1599 29.9732L13.6067 30.2378C15.4836 31.3518 17.6356 31.9409 19.8302 31.9421H19.835C26.5741 31.9421 32.0593 26.4579 32.0621 19.7176C32.0633 16.4511 30.7928 13.3796 28.4842 11.0691C26.1754 8.75863 23.1057 7.48549 19.8394 7.48407C13.0948 7.48407 7.6099 12.9676 7.6073 19.7077C7.60636 22.0174 8.25251 24.2666 9.47669 26.2131L9.7676 26.6757L8.53206 31.1865L13.1599 29.9732Z" fill="white"/>
<path fill-rule="evenodd" clip-rule="evenodd" d="M16.158 13.5584C15.8827 12.9463 15.5927 12.934 15.3307 12.9234C15.1164 12.9141 14.8711 12.9146 14.6263 12.9146C14.3813 12.9146 13.983 13.0069 13.6462 13.3746C13.3092 13.7424 12.3594 14.6317 12.3594 16.4403C12.3594 18.2492 13.6767 19.9967 13.8605 20.2422C14.0443 20.4875 16.4035 24.3176 20.1396 25.7911C23.2448 27.0157 23.8765 26.7721 24.5506 26.7109C25.2246 26.6496 26.7253 25.8216 27.0316 24.9633C27.3381 24.105 27.3381 23.3694 27.2461 23.2154C27.1541 23.0624 26.909 22.9704 26.5415 22.7866C26.174 22.6029 24.3668 21.7134 24.0298 21.5908C23.6927 21.4681 23.4477 21.4071 23.2027 21.7751C22.9574 22.1426 22.2536 22.9704 22.039 23.2154C21.8245 23.4612 21.61 23.4919 21.2425 23.3079C20.8749 23.1237 19.691 22.7358 18.2866 21.4835C17.1939 20.5093 16.456 19.3059 16.2415 18.9379C16.0272 18.5703 16.2379 18.3887 16.403 18.1879C16.7003 17.8263 17.1991 17.1761 17.3216 16.9311C17.4441 16.6856 17.3829 16.4711 17.2911 16.287C17.1991 16.1033 16.4846 14.2854 16.158 13.5584V13.5584Z" fill="white"/>
</svg>
